<svg width="18" height="18" viewBox="0 0 18 18" fill="none" xmlns="http://www.w3.org/2000/svg">
<path d="M11.2327 2.88978C9.8493 2.09924 8.15094 2.09924 6.7675 2.88978L6.01171 3.32166C5.07698 3.85579 4.50012 4.84982 4.50012 5.92639V11.7901C4.50012 13.7993 5.83202 15.565 7.76388 16.117C8.57187 16.3478 9.42837 16.3478 10.2364 16.117C12.1682 15.565 13.5001 13.7993 13.5001 11.7901V5.92639C13.5001 4.84982 12.9233 3.85579 11.9885 3.32166L11.2327 2.88978ZM11.977 1.58742L12.7327 2.0193C14.1348 2.82049 15.0001 4.31154 15.0001 5.92639V11.7901C15.0001 14.469 13.2243 16.8233 10.6484 17.5592C9.57112 17.8671 8.42912 17.8671 7.3518 17.5592C4.77599 16.8233 3.00012 14.469 3.00012 11.7901V5.92639C3.00012 4.31153 3.86541 2.82049 5.2675 2.0193L6.02329 1.58742C7.86788 0.533361 10.1324 0.533361 11.977 1.58742ZM9.00012 3.75018C9.41434 3.75018 9.75012 4.08597 9.75012 4.50018V7.50018C9.75012 7.91439 9.41434 8.25018 9.00012 8.25018C8.58591 8.25018 8.25012 7.91439 8.25012 7.50018V4.50018C8.25012 4.08597 8.58591 3.75018 9.00012 3.75018Z" fill="#213455"/>
</svg>
