<svg width="24" height="24" viewBox="0 0 24 24" fill="none" xmlns="http://www.w3.org/2000/svg">
<path d="M11.32 14.98C11.32 14.4067 11.4067 13.9133 11.58 13.5C11.7667 13.0867 12 12.7267 12.28 12.42C12.5733 12.1 12.88 11.8067 13.2 11.54C13.52 11.26 13.82 10.98 14.1 10.7C14.3933 10.4067 14.6267 10.0867 14.8 9.74C14.9867 9.38 15.08 8.95333 15.08 8.46C15.08 7.68667 14.7733 7.05333 14.16 6.56C13.56 6.05333 12.7 5.8 11.58 5.8C10.6867 5.8 9.90667 5.94 9.24 6.22C8.58667 6.48667 8.02667 6.9 7.56 7.46L6.82 6.88C7.35333 6.24 8.02 5.75333 8.82 5.42C9.63333 5.07333 10.5733 4.9 11.64 4.9C12.5467 4.9 13.3333 5.04 14 5.32C14.68 5.6 15.2 6 15.56 6.52C15.9333 7.02667 16.12 7.62667 16.12 8.32C16.12 8.90667 16.0267 9.40667 15.84 9.82C15.6667 10.2333 15.4333 10.6 15.14 10.92C14.86 11.24 14.56 11.54 14.24 11.82C13.92 12.0867 13.6133 12.3667 13.32 12.66C13.04 12.9533 12.8067 13.2867 12.62 13.66C12.4467 14.0333 12.36 14.4733 12.36 14.98H11.32ZM11.84 19.08C11.6133 19.08 11.42 19 11.26 18.84C11.1 18.6667 11.02 18.4733 11.02 18.26C11.02 18.0333 11.1 17.84 11.26 17.68C11.42 17.52 11.6133 17.44 11.84 17.44C12.08 17.44 12.28 17.52 12.44 17.68C12.6 17.84 12.68 18.0333 12.68 18.26C12.68 18.4733 12.6 18.6667 12.44 18.84C12.28 19 12.08 19.08 11.84 19.08Z" fill="#213455"/>
</svg>
