<svg width="18" height="18" viewBox="0 0 18 18" fill="none" xmlns="http://www.w3.org/2000/svg">
<path d="M0.75 3C0.75 2.58579 1.08579 2.25 1.5 2.25H16.5C16.9142 2.25 17.25 2.58579 17.25 3C17.25 3.41421 16.9142 3.75 16.5 3.75H1.5C1.08579 3.75 0.75 3.41421 0.75 3Z" fill="#213455"/>
<path d="M6.75 6.75C6.75 6.33579 7.08579 6 7.5 6L16.5 6C16.9142 6 17.25 6.33579 17.25 6.75C17.25 7.16421 16.9142 7.5 16.5 7.5L7.5 7.5C7.08579 7.5 6.75 7.16421 6.75 6.75Z" fill="#213455"/>
<path d="M7.5 9.75C7.08579 9.75 6.75 10.0858 6.75 10.5C6.75 10.9142 7.08579 11.25 7.5 11.25L16.5 11.25C16.9142 11.25 17.25 10.9142 17.25 10.5C17.25 10.0858 16.9142 9.75 16.5 9.75L7.5 9.75Z" fill="#213455"/>
<path d="M0.75 14.25C0.75 13.8358 1.08579 13.5 1.5 13.5L16.5 13.5C16.9142 13.5 17.25 13.8358 17.25 14.25C17.25 14.6642 16.9142 15 16.5 15L1.5 15C1.08579 15 0.75 14.6642 0.75 14.25Z" fill="#213455"/>
<path d="M2.78033 5.78033L4.71967 7.71967C5.01256 8.01256 5.01256 8.48744 4.71967 8.78033L2.78033 10.7197C2.30786 11.1921 1.5 10.8575 1.5 10.1893V6.31066C1.5 5.64248 2.30786 5.30786 2.78033 5.78033Z" fill="#213455"/>
</svg>
