<svg width="24" height="24" viewBox="0 0 24 24" fill="none" xmlns="http://www.w3.org/2000/svg">
<path d="M12.12 19.1C11.08 19.1 10.0933 18.9267 9.16 18.58C8.24 18.22 7.52667 17.76 7.02 17.2L7.48 16.44C7.96 16.9333 8.61333 17.3533 9.44 17.7C10.28 18.0333 11.1667 18.2 12.1 18.2C13.0333 18.2 13.7933 18.08 14.38 17.84C14.98 17.5867 15.42 17.2533 15.7 16.84C15.9933 16.4267 16.14 15.9667 16.14 15.46C16.14 14.86 15.98 14.38 15.66 14.02C15.34 13.66 14.92 13.3733 14.4 13.16C13.88 12.9467 13.3133 12.7667 12.7 12.62C12.0867 12.4733 11.4667 12.32 10.84 12.16C10.2133 11.9867 9.64 11.7667 9.12 11.5C8.6 11.2333 8.18 10.8733 7.86 10.42C7.55333 9.95333 7.4 9.35333 7.4 8.62C7.4 7.95333 7.57333 7.34 7.92 6.78C8.26667 6.22 8.80667 5.76667 9.54 5.42C10.2733 5.07333 11.2133 4.9 12.36 4.9C13.1333 4.9 13.8933 5.01333 14.64 5.24C15.4 5.46667 16.0467 5.77333 16.58 6.16L16.2 6.98C15.6133 6.58 14.98 6.28667 14.3 6.1C13.6333 5.9 12.9867 5.8 12.36 5.8C11.4667 5.8 10.7267 5.92667 10.14 6.18C9.55333 6.43333 9.12 6.77333 8.84 7.2C8.56 7.61333 8.42 8.08 8.42 8.6C8.42 9.2 8.57333 9.68 8.88 10.04C9.2 10.4 9.62 10.6867 10.14 10.9C10.66 11.1133 11.2333 11.2933 11.86 11.44C12.4867 11.5867 13.1067 11.7467 13.72 11.92C14.3333 12.08 14.9 12.2933 15.42 12.56C15.94 12.8267 16.36 13.1867 16.68 13.64C17 14.0933 17.16 14.68 17.16 15.4C17.16 16.0533 16.98 16.6667 16.62 17.24C16.26 17.8 15.7067 18.2533 14.96 18.6C14.2267 18.9333 13.28 19.1 12.12 19.1Z" fill="#213455"/>
</svg>
