<svg width="24" height="24" viewBox="0 0 24 24" fill="none" xmlns="http://www.w3.org/2000/svg">
<path d="M3.31573 13.7811L3.80252 13.6669L3.31573 13.7811ZM3.31573 8.324L3.80252 8.43818L3.80252 8.43818L3.31573 8.324ZM18.7893 8.324L19.2761 8.20982L19.2761 8.20982L18.7893 8.324ZM18.7893 13.781L19.2761 13.8952L18.7893 13.781ZM13.781 18.7893L13.6669 18.3025L13.781 18.7893ZM8.324 18.7893L8.20982 19.2761L8.324 18.7893ZM8.324 3.31573L8.20982 2.82894L8.20982 2.82894L8.324 3.31573ZM13.781 3.31573L13.8952 2.82894L13.781 3.31573ZM20.6464 21.3536C20.8417 21.5488 21.1583 21.5488 21.3536 21.3536C21.5488 21.1583 21.5488 20.8417 21.3536 20.6464L20.6464 21.3536ZM3.80252 13.6669C3.39916 11.9473 3.39916 10.1577 3.80252 8.43818L2.82894 8.20981C2.39035 10.0796 2.39035 12.0255 2.82894 13.8952L3.80252 13.6669ZM18.3025 8.43819C18.7059 10.1577 18.7059 11.9473 18.3025 13.6669L19.2761 13.8952C19.7147 12.0255 19.7147 10.0796 19.2761 8.20982L18.3025 8.43819ZM13.6669 18.3025C11.9473 18.7059 10.1577 18.7059 8.43819 18.3025L8.20982 19.2761C10.0796 19.7147 12.0255 19.7147 13.8952 19.2761L13.6669 18.3025ZM8.43819 3.80251C10.1577 3.39916 11.9473 3.39916 13.6669 3.80251L13.8952 2.82894C12.0255 2.39035 10.0796 2.39035 8.20982 2.82894L8.43819 3.80251ZM8.43819 18.3025C6.13804 17.763 4.34206 15.967 3.80252 13.6669L2.82894 13.8952C3.45522 16.5651 5.53991 18.6498 8.20982 19.2761L8.43819 18.3025ZM13.8952 19.2761C16.5651 18.6498 18.6498 16.5651 19.2761 13.8952L18.3025 13.6669C17.763 15.967 15.967 17.763 13.6669 18.3025L13.8952 19.2761ZM13.6669 3.80251C15.967 4.34206 17.763 6.13804 18.3025 8.43819L19.2761 8.20982C18.6498 5.53991 16.5651 3.45522 13.8952 2.82894L13.6669 3.80251ZM8.20982 2.82894C5.53991 3.45522 3.45522 5.5399 2.82894 8.20981L3.80252 8.43818C4.34206 6.13803 6.13804 4.34206 8.43819 3.80251L8.20982 2.82894ZM16.9816 17.6887L20.6464 21.3536L21.3536 20.6464L17.6887 16.9816L16.9816 17.6887Z" fill="#213455"/>
</svg>
